name D:\school\WTK\thesis\model\3dpredictsim\Results\PredSim_adaptations\Pog_s1_tmtL_bCst_ig24_Aj23.mot
datacolumns 128
datarows 4
range 0.00000000 0.03228784
endheader
time	pelvis_tilt	pelvis_list	pelvis_rotation	pelvis_tx	pelvis_ty	pelvis_tz	hip_flexion_l	hip_adduction_l	hip_rotation_l	hip_flexion_r	hip_adduction_r	hip_rotation_r	knee_angle_l	knee_angle_r	ankle_angle_l	ankle_angle_r	subtalar_angle_l	subtalar_angle_r	tmt_angle_l	tmt_angle_r	mtp_angle_l	mtp_angle_r	lumbar_extension	lumbar_bending	lumbar_rotation	arm_flex_l	arm_add_l	arm_rot_l	arm_flex_r	arm_add_r	arm_rot_r	elbow_flex_l	elbow_flex_r	pro_sup_l	pro_sup_r	glut_med1_l/activation	glut_med2_l/activation	glut_med3_l/activation	glut_min1_l/activation	glut_min2_l/activation	glut_min3_l/activation	semimem_l/activation	semiten_l/activation	bifemlh_l/activation	bifemsh_l/activation	sar_l/activation	add_long_l/activation	add_brev_l/activation	add_mag1_l/activation	add_mag2_l/activation	add_mag3_l/activation	tfl_l/activation	pect_l/activation	grac_l/activation	glut_max1_l/activation	glut_max2_l/activation	glut_max3_l/activation	iliacus_l/activation	psoas_l/activation	quad_fem_l/activation	gem_l/activation	peri_l/activation	rect_fem_l/activation	vas_med_l/activation	vas_int_l/activation	vas_lat_l/activation	med_gas_l/activation	lat_gas_l/activation	soleus_l/activation	tib_post_l/activation	flex_dig_l/activation	flex_hal_l/activation	tib_ant_l/activation	per_brev_l/activation	per_long_l/activation	per_tert_l/activation	ext_dig_l/activation	ext_hal_l/activation	ercspn_l/activation	intobl_l/activation	extobl_l/activation	glut_med1_r/activation	glut_med2_r/activation	glut_med3_r/activation	glut_min1_r/activation	glut_min2_r/activation	glut_min3_r/activation	semimem_r/activation	semiten_r/activation	bifemlh_r/activation	bifemsh_r/activation	sar_r/activation	add_long_r/activation	add_brev_r/activation	add_mag1_r/activation	add_mag2_r/activation	add_mag3_r/activation	tfl_r/activation	pect_r/activation	grac_r/activation	glut_max1_r/activation	glut_max2_r/activation	glut_max3_r/activation	iliacus_r/activation	psoas_r/activation	quad_fem_r/activation	gem_r/activation	peri_r/activation	rect_fem_r/activation	vas_med_r/activation	vas_int_r/activation	vas_lat_r/activation	med_gas_r/activation	lat_gas_r/activation	soleus_r/activation	tib_post_r/activation	flex_dig_r/activation	flex_hal_r/activation	tib_ant_r/activation	per_brev_r/activation	per_long_r/activation	per_tert_r/activation	ext_dig_r/activation	ext_hal_r/activation	ercspn_r/activation	intobl_r/activation	extobl_r/activation	
          0.00000000	         -2.92962006	         -2.20445533	          5.17588638	          0.00000000	          0.85862001	         -0.00203465	        -18.16273952	         -1.68935857	          7.09737632	         31.62795669	          3.12862569	         -1.58607026	         -5.89594644	        -14.53141705	          1.60560446	          7.54935152	          9.62066640	         -3.33884409	          0.00000000	          0.00000000	         21.45520301	         -0.13237425	         -1.99460437	          0.51622142	         -1.91004958	          9.34759298	        -13.45277056	         18.93902357	         -8.22430082	        -13.52389331	         12.01755039	         32.86266753	         11.34122521	         86.51662706	         86.51662706	          0.33123386	          0.11408621	          0.08202142	          0.34396550	          0.22599157	          0.11408688	          0.05000060	          0.05000011	          0.05000007	          0.07704651	          0.11408804	          0.05000009	          0.05000008	          0.05000009	          0.05000028	          0.05000017	          0.33305964	          0.05000039	          0.05000033	          0.05000739	          0.05000262	          0.05000077	          0.39015989	          0.64055313	          0.05000023	          0.05000072	          0.06120909	          0.20660834	          0.05000082	          0.05000043	          0.05000044	          0.33414080	          0.44904718	          0.31383201	          0.27400478	          0.28635999	          0.38777018	          0.05000001	          0.06178258	          0.16427403	          0.05000010	          0.05000003	          0.05000010	          0.05000000	          0.05000000	          0.05000001	          0.11553794	          0.05000008	          0.05896875	          0.05000006	          0.05000008	          0.05000027	          0.05896885	          0.05896895	          0.19673301	          0.05000032	          0.05000135	          0.09555489	          0.14841148	          0.21522921	          0.15602478	          0.10752470	          0.05896879	          0.05002236	          0.05896995	          0.05898612	          0.06954636	          0.10838728	          0.05000007	          0.05000008	          0.25966547	          0.05131316	          0.05000032	          0.05000021	          0.09096192	          0.09542046	          0.08018758	          0.05896881	          0.05690496	          0.05896883	          0.05000003	          0.05000059	          0.05000308	          0.49509234	          0.38586054	          0.22189651	          0.27416670	          0.54715397	          0.28525935	          0.07676998	          0.11025097	          0.12194406	
          0.01076261	         -2.92498498	         -2.29605291	          5.47545479	          0.01598619	          0.85755249	         -0.00184383	        -18.04661696	         -1.98487009	          6.87300888	         31.04577298	          3.46695192	         -1.37842961	         -7.80416385	        -14.38117931	          0.87347383	          6.98749190	         10.56051220	         -3.81343303	          0.00000000	          0.00000000	         22.48343257	         -0.11435146	         -1.81466752	          0.73836396	         -1.98009202	          9.22403320	        -13.46084031	         19.05448811	         -9.27603783	        -13.51854938	         12.02441084	         34.06017878	         11.21504702	         86.51662706	         86.51662706	          0.28085502	          0.09673432	          0.06954642	          0.29165026	          0.19161949	          0.09673490	          0.05000197	          0.05000031	          0.05000042	          0.06532817	          0.09673596	          0.11496531	          0.05000746	          0.05139623	          0.05000393	          0.06954455	          0.28240313	          0.06226289	          0.05000132	          0.05000126	          0.05000095	          0.05000084	          0.33081870	          0.56217935	          0.05000022	          0.05000816	          0.05896888	          0.17518437	          0.05000175	          0.16887679	          0.15706803	          0.28331978	          0.38074953	          0.26819406	          0.24905688	          0.24280701	          0.32879315	          0.05000001	          0.05335812	          0.17196736	          0.05000008	          0.05000002	          0.05000007	          0.05000000	          0.06954648	          0.05000001	          0.09796530	          0.05896877	          0.05000006	          0.05896923	          0.05896889	          0.05000053	          0.05000005	          0.05000023	          0.16862884	          0.05000026	          0.05000053	          0.08102307	          0.12583908	          0.22129946	          0.17431092	          0.10345619	          0.05000016	          0.05000130	          0.05000123	          0.05001513	          0.05896881	          0.10653380	          0.05149775	          0.05042590	          0.50363159	          0.13525747	          0.08726864	          0.06954660	          0.18713161	          0.19046699	          0.16484560	          0.05000000	          0.05000000	          0.05000000	          0.05000006	          0.05896898	          0.05000109	          0.55168881	          0.34255652	          0.22934898	          0.46711870	          0.58976196	          0.25921436	          0.06509369	          0.09348240	          0.10339703	
          0.02152523	         -2.91632001	         -2.38226196	          5.75233335	          0.03227546	          0.85650244	         -0.00166094	        -17.85464782	         -2.27123436	          6.63897953	         30.33932364	          3.75781620	         -1.11068702	         -9.84912774	        -14.77651544	         -0.01358182	          6.35394731	         11.46248088	         -4.30705484	          0.00000000	          0.00000000	         23.36290434	         -0.15466482	         -1.61228408	          0.96178508	         -2.04092732	          9.01022044	        -13.46944252	         19.10251643	        -10.35047241	        -13.51471986	         12.04037833	         35.22443673	         11.15489423	         86.51662706	         86.51662706	          0.33778125	          0.08202156	          0.05896881	          0.24729194	          0.16247523	          0.08202206	          0.05000104	          0.05000035	          0.05000035	          0.05539213	          0.08202306	          0.14029682	          0.09599806	          0.05896946	          0.05896897	          0.05896878	          0.23945131	          0.08500628	          0.05003323	          0.05000411	          0.05000394	          0.05502641	          0.28050303	          0.53809877	          0.05599426	          0.05000067	          0.05000010	          0.14853979	          0.09909217	          0.14319183	          0.13317919	          0.24022836	          0.32283958	          0.22740318	          0.21117671	          0.20587750	          0.27878558	          0.05000000	          0.05000019	          0.18762974	          0.05000004	          0.05000001	          0.05000006	          0.05551359	          0.05896884	          0.05000099	          0.27024284	          0.05000003	          0.30441094	          0.05000036	          0.05000011	          0.20704780	          0.07501993	          0.05000009	          0.15493091	          0.05000003	          0.05000025	          0.08202233	          0.22463497	          0.18764160	          0.14780024	          0.12985802	          0.05000030	          0.05897569	          0.11477920	          0.05000006	          0.05000009	          0.11777054	          0.05796224	          0.05000067	          0.42703196	          0.11468559	          0.16676433	          0.05896894	          0.15866995	          0.16149804	          0.13977351	          0.06573714	          0.06949951	          0.05944561	          0.05896885	          0.05000020	          0.05000041	          0.46777991	          0.34821450	          0.19446628	          0.39607253	          0.58098811	          0.21978927	          0.05519330	          0.09487226	          0.08767090	
          0.03228784	         -2.90525211	         -2.46720458	          5.99933251	          0.04871277	          0.85547489	         -0.00146773	        -17.56445238	         -2.54833281	          6.40105344	         29.50702079	          4.01564488	         -0.83208828	        -12.04911381	        -15.22050427	         -1.04883759	          5.90482437	         12.30769863	         -4.79332311	          0.00000000	          0.00000000	         24.05016071	         -0.16323714	         -1.40264166	          1.18951558	         -2.09249690	          8.72840911	        -13.48076818	         19.09344733	        -11.40685510	        -13.51302664	         12.08546263	         36.34438157	         11.13287679	         86.51662706	         86.51662706	          0.31289655	          0.06954653	          0.05000006	          0.35142382	          0.13776366	          0.06954697	          0.05000159	          0.05000009	          0.05000008	          0.05000011	          0.06954805	          0.12862417	          0.08139735	          0.05000065	          0.05000056	          0.05000026	          0.25842487	          0.07207833	          0.05000028	          0.05000079	          0.05000048	          0.05000027	          0.23784010	          0.50126120	          0.05000005	          0.05000036	          0.05000021	          0.13455058	          0.08402102	          0.12141356	          0.12876963	          0.20369092	          0.27373742	          0.19281638	          0.17905789	          0.17456471	          0.23638384	          0.05000002	          0.09568841	          0.18838312	          0.05000009	          0.05000018	          0.05000012	          0.07369715	          0.05000000	          0.05000001	          0.31834237	          0.29059559	          0.37312523	          0.19908882	          0.20975092	          0.17555732	          0.06360987	          0.10013087	          0.13136678	          0.08287496	          0.05896847	          0.06954719	          0.19046921	          0.15910238	          0.12532073	          0.15219407	          0.05000018	          0.05000598	          0.09732255	          0.22477755	          0.17051763	          0.12956862	          0.05000004	          0.05000005	          0.36208274	          0.09724265	          0.14140053	          0.05000010	          0.13453714	          0.13693512	          0.11851475	          0.05573888	          0.05892903	          0.05040426	          0.05000001	          0.05896887	          0.05061538	          0.59914728	          0.44018046	          0.22463063	          0.64836975	          0.65048492	          0.34824642	          0.07936889	          0.08673052	          0.07433663	
